HIERARCHY
ROOT Hips
{
	OFFSET 0.000000 0.000000 0.000000 
	CHANNELS 6 Xposition Yposition Zposition Zrotation Yrotation Xrotation
	JOINT LeftUpLeg
	{
		OFFSET 1.363060 -1.794630 0.839290 
		CHANNELS 3 Zrotation Yrotation Xrotation
		JOINT LeftLeg
		{
			OFFSET 2.448110 -6.726130 0.000000 
			CHANNELS 3 Zrotation Yrotation Xrotation
			JOINT LeftFoot
			{
				OFFSET 2.562200 -7.039590 0.000000 
				CHANNELS 3 Zrotation Yrotation Xrotation
				JOINT LeftToeBase
				{
					OFFSET 0.157640 -0.433110 2.322550 
					CHANNELS 3 Zrotation Yrotation Xrotation
					End Site
					{
						OFFSET 0.000000 0.000000 0.000000 
					}
				}
			}
		}
	}
	JOINT RightUpLeg
	{
		OFFSET -1.305520 -1.794630 0.839290 
		CHANNELS 3 Zrotation Yrotation Xrotation
		JOINT RightLeg
		{
			OFFSET -2.542530 -6.985550 0.000000 
			CHANNELS 3 Zrotation Yrotation Xrotation
			JOINT RightFoot
			{
				OFFSET -2.568260 -7.056230 0.000000 
				CHANNELS 3 Zrotation Yrotation Xrotation
				JOINT RightToeBase
				{
					OFFSET -0.164730 -0.452590 2.363150 
					CHANNELS 3 Zrotation Yrotation Xrotation
					End Site
					{
						OFFSET 0.000000 0.000000 0.000000 
					}
				}
			}
		}
	}
	JOINT Spine
	{
		OFFSET 0.028270 2.035590 -0.193380 
		CHANNELS 3 Zrotation Yrotation Xrotation
		JOINT Spine1
		{
			OFFSET 0.056720 2.048850 -0.042750 
			CHANNELS 3 Zrotation Yrotation Xrotation
			JOINT Neck1
			{
				OFFSET -0.054170 1.746240 0.172020 
				CHANNELS 3 Zrotation Yrotation Xrotation
				JOINT Head
				{
					OFFSET 0.104070 1.761360 -0.123970 
					CHANNELS 3 Zrotation Yrotation Xrotation
					End Site
					{
						OFFSET 0.000000 0.000000 0.000000 
					}
				}
			}
			JOINT LeftArm
			{
				OFFSET 3.362410 1.200890 -0.311210 
				CHANNELS 3 Zrotation Yrotation Xrotation
				JOINT LeftForeArm
				{
					OFFSET 4.983000 -0.000000 -0.000000 
					CHANNELS 3 Zrotation Yrotation Xrotation
					JOINT LeftHand
					{
						OFFSET 3.483560 -0.000000 -0.000000 
						CHANNELS 3 Zrotation Yrotation Xrotation
						JOINT LeftHandIndex1
						{
							OFFSET 0.715260 -0.000000 -0.000000 
							CHANNELS 3 Zrotation Yrotation Xrotation
							End Site
							{
								OFFSET 0.000000 0.000000 0.000000 
							}
						}
					}
				}
			}
			JOINT RightArm
			{
				OFFSET -3.136600 1.374050 -0.404650 
				CHANNELS 3 Zrotation Yrotation Xrotation
				JOINT RightForeArm
				{
					OFFSET -5.241900 -0.000000 -0.000000 
					CHANNELS 3 Zrotation Yrotation Xrotation
					JOINT RightHand
					{
						OFFSET -3.444170 -0.000000 -0.000000 
						CHANNELS 3 Zrotation Yrotation Xrotation
						JOINT RightHandIndex1
						{
							OFFSET -0.622530 -0.000000 -0.000000 
							CHANNELS 3 Zrotation Yrotation Xrotation
							End Site
							{
								OFFSET 0.000000 0.000000 0.000000 
							}
						}
					}
				}
			}
		}
	}
}
MOTION
Frames: 9
Frame Time: 0.041667
-7.665141 16.337290 11.770056 146.456529 17.850214 -117.469526 -39.278935 -0.796105 -19.262932 -3.561293 5.449196 10.765396 1.776456 6.929001 26.511995 0.645000 5.137800 14.301900 -14.313263 8.187127 -87.508555 -8.051668 -23.501844 57.607182 0.432521 -15.708197 -31.420818 -0.625700 -5.061600 14.084300 3.570038 -4.140543 -5.090697 8.173802 -2.618754 -13.665043 6.140627 2.279377 2.610808 -2.716300 0.946400 7.326000 -27.873790 -53.939463 35.647528 48.695538 -42.841130 -15.622988 -0.225750 -0.172025 8.006505 -7.125000 0.000000 0.000000 30.038668 45.285031 -6.183828 -24.002308 24.563579 -5.140510 0.892326 -2.794734 -18.104928 7.125000 0.000000 0.000000 
-7.687524 16.378474 11.917448 147.029492 16.617857 -118.588666 -38.851404 -1.088635 -18.557622 -3.500873 5.589011 11.169947 1.498645 7.765251 25.722238 0.565100 4.814500 13.380300 -13.090848 8.559773 -86.446031 -7.984532 -23.529163 57.542788 0.559818 -15.752529 -30.831422 -0.594500 -4.936300 13.726900 3.560886 -4.362417 -5.099306 7.946829 -2.901122 -13.397164 6.124081 2.272372 2.868492 -2.749100 0.956000 7.418400 -30.597415 -53.625271 49.397590 56.159055 -34.357393 -17.097873 -0.492644 -1.078262 5.943743 -7.125000 0.000000 0.000000 31.216107 44.489278 -4.912281 -24.140469 24.520411 -5.071903 0.826852 -2.715043 -17.258882 7.125000 0.000000 0.000000 
-7.707221 16.423240 12.061705 147.541444 15.378416 -119.736545 -38.414714 -1.319667 -17.810003 -3.442525 5.705218 11.543346 1.270757 8.484105 25.182866 0.490100 4.488600 12.455500 -11.854999 8.852485 -85.361569 -7.897597 -23.555708 57.424721 0.694460 -15.771079 -30.157310 -0.556200 -4.777400 13.274800 3.519806 -4.410546 -5.088039 7.496997 -3.025080 -12.929737 5.989430 2.259111 3.210772 -2.810700 0.951700 7.511200 -31.631180 -55.092546 54.340832 59.419792 -30.638486 -18.741856 -0.497943 -2.083409 4.336095 -7.125000 0.000000 0.000000 32.179428 43.692099 -3.867132 -24.081583 24.414734 -5.001292 0.739803 -2.663284 -16.250892 7.125000 0.000000 0.000000 
-7.724568 16.470468 12.204061 148.005317 14.185659 -120.867464 -38.030112 -1.505727 -17.067798 -3.390872 5.791436 11.859167 1.111465 9.007323 24.913701 0.420600 4.162400 11.534000 -10.673254 9.059399 -84.299762 -7.800377 -23.569377 57.265561 0.817812 -15.722958 -29.435810 -0.528700 -4.659400 12.939500 3.467766 -4.396515 -5.074276 7.067902 -3.066663 -12.618914 5.832672 2.232982 3.498213 -2.877200 0.943300 7.585600 -32.948004 -56.355639 56.210708 61.484663 -29.685488 -20.557135 -0.473247 -2.644872 3.287234 -7.125000 0.000000 0.000000 32.962808 42.787494 -2.903166 -23.933898 24.328004 -4.946352 0.643446 -2.642320 -15.132924 7.125000 0.000000 0.000000 
-7.739564 16.518592 12.346528 148.427889 13.091884 -121.960534 -37.744050 -1.672321 -16.360889 -3.345441 5.847204 12.116089 1.020166 9.313283 24.870243 0.357500 3.841200 10.630300 -9.636613 9.214674 -83.278814 -7.701833 -23.567348 57.077598 0.946719 -15.636745 -28.601676 -0.502300 -4.543700 12.611500 3.436268 -4.404035 -5.103571 6.693138 -3.132639 -12.248387 5.746365 2.205515 3.523618 -2.930500 0.930600 7.629700 -33.619042 -56.622021 56.825077 63.999296 -30.046862 -22.484374 -0.482767 -2.509212 2.907774 -7.125000 0.000000 0.000000 33.498584 41.745102 -1.995373 -23.893123 24.295984 -4.929958 0.557892 -2.657890 -14.002787 7.125000 0.000000 0.000000 
-7.751875 16.567162 12.489555 148.809600 12.090773 -122.958857 -37.546644 -1.833707 -15.744314 -3.310397 5.880881 12.319761 0.988442 9.390050 24.956180 0.299200 3.517000 9.721700 -8.814421 9.349949 -82.344912 -7.605815 -23.555520 56.867043 1.069527 -15.478609 -27.654620 -0.483000 -4.456500 12.364600 3.415544 -4.441525 -5.152664 6.344191 -3.211781 -11.827505 5.708490 2.189148 3.407016 -2.960300 0.922100 7.646300 -33.978774 -56.264684 56.722074 66.699423 -31.102590 -24.502759 -0.480287 -2.055003 3.133723 -7.125000 0.000000 0.000000 33.880836 40.673979 -1.113136 -23.866578 24.246071 -4.904801 0.464021 -2.679980 -12.667352 7.125000 0.000000 0.000000 
-7.761164 16.614838 12.634596 149.159585 11.205863 -123.849605 -37.441030 -1.990640 -15.232060 -3.286049 5.906256 12.490954 0.991620 9.292325 25.050477 0.250700 3.221900 8.897100 -8.296481 9.546663 -81.516642 -7.514085 -23.546625 56.635608 1.202253 -15.289341 -26.540180 -0.461300 -4.356900 12.083000 3.390561 -4.465816 -5.187854 6.066477 -3.252014 -11.402986 5.668149 2.180931 3.314789 -2.977800 0.916600 7.644100 -34.569615 -55.913421 56.315655 69.129645 -32.382470 -26.623913 -0.431992 -1.672506 3.807856 -7.125000 0.000000 0.000000 34.179563 39.585751 -0.197389 -23.816119 24.219071 -4.877979 0.368350 -2.693761 -11.180880 7.125000 0.000000 0.000000 
-7.767543 16.661730 12.781204 149.498532 10.402581 -124.630254 -37.381154 -2.156747 -14.828421 -3.267937 5.936620 12.659390 1.001432 9.088014 25.052564 0.208800 2.941900 8.117000 -8.103254 9.854437 -80.760415 -7.428147 -23.547381 56.388564 1.340220 -15.058649 -25.241403 -0.430500 -4.210500 11.669700 3.365823 -4.465360 -5.211403 5.872530 -3.257829 -10.957329 5.619848 2.172756 3.262730 -2.992800 0.908900 7.631900 -35.362588 -55.630920 55.857474 71.401222 -33.648245 -28.862121 -0.345502 -1.410478 4.748168 -7.125000 0.000000 0.000000 34.423239 38.433546 0.760026 -23.790562 24.249938 -4.861236 0.271016 -2.694462 -9.641482 7.125000 0.000000 0.000000 
-7.771124 16.707168 12.929491 149.842420 9.667930 -125.293693 -37.345312 -2.335632 -14.549370 -3.252883 5.982678 12.849743 1.003438 8.815039 24.913068 0.170700 2.661700 7.338300 -8.256011 10.313860 -80.076828 -7.349003 -23.563654 56.134060 1.458108 -14.738860 -23.809691 -0.398600 -4.053600 11.227500 3.344338 -4.424263 -5.228323 5.762668 -3.230303 -10.471654 5.566929 2.148244 3.237801 -3.014500 0.891200 7.615600 -36.298705 -55.411680 55.491481 73.642741 -34.786032 -31.235818 -0.243945 -1.246256 5.749219 -7.125000 0.000000 0.000000 34.640802 37.211329 1.676092 -23.811721 24.339945 -4.856408 0.173147 -2.680886 -8.070394 7.125000 0.000000 0.000000 
